<svg width="196" height="41" viewBox="0 0 196 41" fill="none" xmlns="http://www.w3.org/2000/svg">
<path d="M46.7561 13.5082C47.3551 12.9481 47.9439 12.3766 48.556 11.8311C49.2317 11.2288 49.9187 10.6382 50.6191 10.0648C51.57 9.28632 52.5443 8.53642 53.4972 7.76028C54.2755 7.12634 55.0371 6.47193 55.8763 5.81878C55.9601 5.76982 55.9737 5.72867 55.9874 5.68751C55.9874 5.68751 55.9887 5.69505 56.0237 5.70426C56.0687 5.67062 56.0786 5.62777 56.0885 5.58493C56.0885 5.58493 56.0936 5.59359 56.1087 5.61824C56.242 5.59998 56.3602 5.55705 56.5113 5.54065C56.7203 5.63294 56.8947 5.70383 57.0728 5.76372C63.1112 7.79424 68.0823 11.3294 71.965 16.3769C75.0408 20.3753 77.0251 24.8632 77.9079 29.8368C78.2882 31.98 78.4298 34.1381 78.3601 36.3208C75.2249 36.3281 72.1379 36.3253 69.0514 36.2753C69.011 35.033 69.0698 33.8239 68.9032 32.6466C68.7085 31.2705 68.3846 29.9026 67.9954 28.5666C67.4378 26.6529 66.5369 24.8797 65.4301 23.2239C64.1115 21.2515 62.4943 19.5518 60.6261 18.083C58.5454 16.447 56.2332 15.2543 53.7209 14.4634C51.46 13.7517 49.1319 13.4312 46.7561 13.5082Z" fill="#3170A6"/>
<path d="M78.4083 36.3106C78.4298 34.1381 78.2882 31.9799 77.9078 29.8368C77.0251 24.8632 75.0407 20.3753 71.965 16.3769C68.0823 11.3294 63.1111 7.79422 57.0728 5.7637C56.8947 5.70381 56.7203 5.63292 56.533 5.51919C56.6865 5.26911 56.8512 5.06701 57.0159 4.86489C57.0159 4.86489 57.0172 4.87236 57.0444 4.86989C57.0873 4.83234 57.1032 4.79727 57.119 4.7622C57.119 4.7622 57.1198 4.76978 57.1508 4.77435C57.2841 4.68217 57.3865 4.58541 57.489 4.48866C57.9088 4.16131 58.3287 3.83396 58.802 3.46943C59.0308 3.25874 59.206 3.08525 59.3812 2.91175C59.3812 2.91175 59.3821 2.91928 59.4157 2.92551C59.5976 2.78689 59.7459 2.64203 59.8941 2.49718C59.8941 2.49718 59.8967 2.50541 59.9233 2.50398C59.9661 2.46785 59.9822 2.43316 59.9983 2.39847C59.9983 2.39847 59.9991 2.40596 60.0314 2.41443C60.1544 2.35123 60.2452 2.27957 60.336 2.2079C61.2362 1.36227 62.1322 0.510912 63.3949 0.0458451C64.4205 -0.0884889 65.3146 0.080246 66.1788 0.449205C66.1788 0.449205 66.1718 0.45163 66.1758 0.484315C66.2827 0.562785 66.3855 0.60857 66.4883 0.654355C66.4883 0.654355 66.4806 0.655984 66.4813 0.678385C66.5095 0.720324 66.5371 0.739857 66.5646 0.759394C67.4137 1.45035 68.2633 2.14059 69.1095 2.83498C69.1418 2.86149 69.1413 2.92808 69.1896 3.01829C69.2601 3.06977 69.2968 3.07895 69.3336 3.08813C69.3733 3.11725 69.4131 3.14638 69.4769 3.2394C69.6508 3.40369 69.8008 3.50409 69.9507 3.60448C69.9907 3.6335 70.0307 3.66251 70.0973 3.73347C70.1363 3.78872 70.1492 3.80166 70.1624 3.81426C70.1624 3.81426 70.1975 3.82925 70.2117 3.87518C70.3375 3.98234 70.4491 4.04357 70.5608 4.1048C70.5608 4.1048 70.6029 4.13148 70.621 4.18154C70.7508 4.29554 70.8625 4.35951 70.9743 4.42346C71.0158 4.45394 71.0573 4.48442 71.1264 4.55693C71.1541 4.59896 71.1897 4.63546 71.1897 4.63546C71.1897 4.63546 71.2257 4.65233 71.2411 4.70036C71.4416 4.88445 71.6266 5.02051 71.8117 5.15657C71.8117 5.15657 71.8458 5.16801 71.8591 5.21309C71.9849 5.32211 72.0975 5.38604 72.2101 5.44996C72.2506 5.48016 72.2911 5.51036 72.3579 5.6035C72.4753 5.7085 72.5663 5.75055 72.6574 5.79261C72.6574 5.79261 72.6484 5.79774 72.6604 5.82712C72.8094 6.00743 72.9304 6.17741 73.0856 6.30622C74.018 7.07999 74.9513 7.85283 75.898 8.609C76.6147 9.18154 77.3517 9.72877 78.0797 10.2873C78.0797 10.2873 78.1192 10.3093 78.1362 10.3529C78.2287 10.4261 78.3042 10.4556 78.3797 10.4851C78.3951 10.4949 78.4105 10.5047 78.4451 10.5649C78.6077 10.7105 78.7511 10.8055 78.8946 10.9005C78.9345 10.9299 78.9744 10.9593 79.0401 11.0335C79.0782 11.0942 79.0934 11.1068 79.1115 11.1158C79.1115 11.1158 79.1469 11.1318 79.1602 11.1765C79.2868 11.3184 79.4001 11.4156 79.5133 11.5127C79.9447 11.8319 80.3761 12.1511 80.8531 12.5064C80.9273 12.5613 80.958 12.5758 80.9907 12.5859C80.9907 12.5859 80.9773 12.5848 80.9857 12.6134C81.0941 12.6908 81.1942 12.7395 81.2942 12.7883C81.2942 12.7883 81.287 12.7902 81.2896 12.8173C81.3274 12.8604 81.3626 12.8764 81.3978 12.8923C81.3978 12.8923 81.3897 12.8937 81.3964 12.9177C81.4354 12.96 81.4678 12.9784 81.5002 12.9967C81.5002 12.9967 81.4922 12.9958 81.4943 13.0234C81.5321 13.0665 81.5676 13.082 81.6032 13.0976C81.6032 13.0976 81.5957 13.0988 81.5919 13.1334C82.3029 14.233 82.3264 15.4299 82.3216 16.6578C82.2999 22.3016 82.3114 27.9455 82.3111 33.5893C82.3111 33.5893 82.3162 33.6236 82.281 33.6663C82.2359 33.8341 82.2259 33.9592 82.2159 34.0843C82.2159 34.0843 82.2123 34.0778 82.1825 34.0929C82.1394 34.2034 82.1262 34.2987 82.113 34.394C82.113 34.394 82.1098 34.387 82.0778 34.4014C82.0297 34.4898 82.0136 34.5639 81.9975 34.6379C81.9975 34.6379 82.0036 34.6423 81.9689 34.6594C81.9249 34.7192 81.9155 34.7619 81.9062 34.8045C81.9062 34.8045 81.9035 34.7977 81.8759 34.8047C81.8288 34.8491 81.8092 34.8865 81.7896 34.9239C81.5598 35.1635 81.33 35.4031 81.045 35.6758C80.9182 35.7849 80.8467 35.8607 80.7751 35.9366C80.7751 35.9366 80.772 35.9293 80.7356 35.9225C79.9594 36.1853 79.2158 36.4333 78.4083 36.3106Z" fill="#53DEF6"/>
<path d="M46.7486 13.5464C49.1319 13.4311 51.46 13.7517 53.7209 14.4634C56.2332 15.2543 58.5454 16.447 60.6261 18.083C62.4943 19.5518 64.1115 21.2515 65.43 23.2239C66.5369 24.8796 67.4378 26.6528 67.9954 28.5666C68.3846 29.9026 68.7085 31.2705 68.9032 32.6466C69.0698 33.8239 69.011 35.033 69.0034 36.2834C65.5702 36.3387 62.1854 36.3387 58.7775 36.3387C58.7775 36.0741 58.7931 35.8547 58.7747 35.6383C58.71 34.8771 58.6336 34.1169 58.5616 33.3563C58.3488 32.6541 58.1683 31.94 57.914 31.2533C57.6789 30.6184 57.4342 29.9683 57.0713 29.4036C56.3085 28.2167 55.4608 27.1093 54.3037 26.2316C53.2256 25.4138 52.0909 24.7563 50.8277 24.3018C50.5758 24.2112 50.3153 24.1443 50.019 24.0005C48.7762 23.7619 47.5731 23.5891 46.334 23.4112C46.334 20.5539 46.334 17.6029 46.334 14.6519C46.4697 14.2962 46.6054 13.9404 46.7486 13.5464Z" fill="#244082"/>
<ellipse cx="47.2508" cy="33.8707" rx="6.58068" ry="6.58068" fill="#1A1D66"/>
<path d="M120.729 20.0994C119.752 17.3715 118.781 14.6804 117.797 11.9542C118.451 11.8431 119.013 12.0542 119.541 12.3312C120.373 12.7671 120.978 13.4294 121.298 14.322C121.785 15.6816 122.257 17.0467 122.769 18.5049C122.985 17.9214 123.172 17.4172 123.357 16.9122C123.824 15.6412 124.284 14.3681 124.756 13.0993C125.058 12.2877 125.594 11.9136 126.41 11.9171C127.171 11.9203 127.74 12.3289 128.018 13.1087C128.644 14.8665 129.258 16.6285 129.914 18.4959C130.007 18.2653 130.071 18.1203 130.125 17.9713C130.57 16.7286 131.006 15.4823 131.46 14.2427C131.98 12.8217 133.337 11.8823 134.808 11.9394C134.368 13.1601 133.935 14.3684 133.498 15.5758C132.811 17.4786 132.115 19.3785 131.439 21.2854C131.329 21.5933 131.198 21.7339 130.845 21.7151C130.205 21.6809 129.56 21.6811 128.919 21.7155C128.583 21.7335 128.46 21.5972 128.359 21.3105C127.736 19.5495 127.098 17.7939 126.465 16.0366C126.428 15.9353 126.388 15.8353 126.317 15.648C125.55 17.7019 124.809 19.6838 124.054 21.7051C123.224 21.7051 122.379 21.7143 121.536 21.6938C121.426 21.6911 121.27 21.5566 121.222 21.4459C121.041 21.0175 120.894 20.574 120.729 20.0994Z" fill="#1A1D66"/>
<path d="M90.5853 14.6234C91.6944 12.1871 94.667 11.1591 97.309 12.0682C99.6504 12.8739 100.848 15.3812 100.355 17.5955C97.9387 17.5955 95.5152 17.5955 93.022 17.5955C93.184 18.3768 93.5893 18.9379 94.2626 19.2263C95.6863 19.8361 97.036 19.6798 98.2566 18.6537C98.8183 19.0965 99.1208 19.6496 98.9842 20.3607C98.8514 21.0516 98.3532 21.4125 97.7059 21.5819C96.0217 22.0224 94.363 21.9875 92.784 21.195C90.4121 20.0046 89.5134 17.3168 90.5853 14.6234ZM96.0211 13.9935C94.6494 13.5822 93.0636 14.5233 93.0161 15.9447C94.5937 15.9447 96.171 15.9447 97.7884 15.9447C97.5925 14.947 97.0642 14.2856 96.0211 13.9935Z" fill="#1A1D66"/>
<path d="M109.561 18.8209C110.545 19.2608 111.535 19.6429 112.613 19.679C113.106 19.6955 113.607 19.6365 114.095 19.5576C114.497 19.4928 114.79 19.2412 114.791 18.7987C114.791 18.3701 114.447 18.2175 114.11 18.1474C113.229 17.9644 112.338 17.8263 111.455 17.6537C111.167 17.5974 110.883 17.5039 110.606 17.4037C109.669 17.0643 109.026 16.4377 108.891 15.4246C108.744 14.3255 109.067 13.3717 109.993 12.7011C111.238 11.8001 112.668 11.6646 114.143 11.7732C114.531 11.8017 114.916 11.8665 115.3 11.9274C116.351 12.0938 116.9 13.0787 116.495 14.0627C116.424 14.2344 116.343 14.402 116.289 14.5214C115.539 14.3234 114.821 14.0544 114.082 13.964C113.481 13.8904 112.847 13.9946 112.239 14.0895C111.866 14.1477 111.594 14.4095 111.599 14.8404C111.604 15.2487 111.902 15.4198 112.229 15.4927C113.032 15.6717 113.847 15.7925 114.649 15.9765C115.145 16.0903 115.643 16.233 116.107 16.4386C117.894 17.2307 117.788 19.4577 116.882 20.4512C116.131 21.2743 115.163 21.6351 114.114 21.7772C113.027 21.9244 111.943 21.807 110.851 21.658C109.552 21.4808 108.73 20.193 109.561 18.8209Z" fill="#1A1D66"/>
<path d="M141.989 14.3714C141.503 14.3296 141.016 14.2878 140.498 14.2434C140.498 13.5699 140.498 12.873 140.498 12.1333C140.964 12.1333 141.441 12.1333 141.916 12.1333C141.983 11.5854 141.995 11.0671 142.116 10.5759C142.532 8.89513 143.858 8.00386 145.834 8.049C146.206 8.05749 146.582 8.09543 146.946 8.16907C147.53 8.287 147.819 8.7966 147.643 9.37163C147.521 9.77374 147.366 10.1661 147.215 10.5938C146.545 10.29 145.858 10.0636 145.2 10.5529C144.689 10.9324 144.78 11.5175 144.78 12.1069C145.598 12.1069 146.405 12.1069 147.234 12.1069C147.234 12.8478 147.234 13.5435 147.234 14.3103C146.431 14.3103 145.638 14.3103 144.793 14.3703C144.729 14.6005 144.706 14.7707 144.706 14.9409C144.704 16.771 144.704 18.6011 144.704 20.4312C144.704 20.7794 144.704 21.1276 144.704 21.5189C144.085 21.5189 143.54 21.5189 142.996 21.5189C142.14 21.5189 142.157 21.519 142.162 20.7066C142.172 18.7201 142.168 16.7335 142.158 14.7471C142.157 14.6216 142.048 14.4966 141.989 14.3714Z" fill="#191C66"/>
<path d="M149.61 19.1141C149.604 17.4938 149.604 15.9153 149.604 14.3013C149.056 14.3013 148.592 14.3013 148.096 14.3013C148.096 13.5701 148.096 12.8736 148.096 12.1296C148.556 12.1296 149.034 12.1296 149.554 12.1296C149.554 11.3238 149.554 10.5632 149.554 9.77643C150.514 9.77643 151.432 9.77643 152.39 9.77643C152.39 10.5277 152.39 11.2886 152.39 12.0905C153.217 12.0905 154.008 12.0905 154.831 12.0905C154.831 12.8271 154.831 13.5236 154.831 14.2656C154.058 14.2656 153.268 14.2656 152.413 14.2656C152.413 14.7093 152.413 15.1094 152.413 15.5096C152.413 16.3714 152.413 17.2332 152.413 18.095C152.412 19.3952 153.293 19.9515 154.482 19.4004C154.566 19.3614 154.645 19.3119 154.785 19.2356C154.94 19.6616 155.139 20.0664 155.231 20.4943C155.363 21.1052 155.029 21.5564 154.421 21.7078C153.554 21.9237 152.68 21.9138 151.828 21.6756C150.559 21.3208 149.832 20.4529 149.61 19.1141Z" fill="#191C66"/>
<path d="M104.923 15.4163C105.749 15.4163 106.528 15.4163 107.33 15.4163C107.33 16.1923 107.33 16.9226 107.33 17.6937C105.639 17.6937 103.944 17.6937 102.218 17.6937C102.218 16.9582 102.218 16.2158 102.218 15.4163C103.103 15.4163 103.99 15.4163 104.923 15.4163Z" fill="#1A1D66"/>
<path d="M138.451 7.52419C139.387 8.08214 139.621 9.02465 139.055 9.83892C138.521 10.6081 137.181 10.7811 136.416 10.1795C135.702 9.61719 135.576 8.59895 136.177 7.94226C136.805 7.2559 137.595 7.25942 138.451 7.52419Z" fill="#1A1D66"/>
<path d="M137.279 21.5203C136.113 21.5125 136.243 21.6437 136.241 20.5078C136.237 17.8778 136.24 15.2478 136.24 12.6178C136.24 12.0227 136.244 12.0209 136.849 12.0198C137.365 12.0188 137.883 12.0322 138.399 12.0153C138.732 12.0044 138.88 12.112 138.879 12.4691C138.87 15.3339 138.871 18.1988 138.879 21.0636C138.88 21.4142 138.745 21.541 138.405 21.5242C138.046 21.5064 137.685 21.5202 137.279 21.5203Z" fill="#191C66"/>
<path d="M119.352 32.6352C119.296 32.7964 119.239 32.9117 119.182 33.0271C119.113 32.9354 118.985 32.8447 118.983 32.752C118.969 31.7655 118.974 30.7787 118.974 29.7652C119.532 29.7652 120.04 29.739 120.544 29.7725C121.044 29.8059 121.416 30.0573 121.535 30.5802C121.653 31.1007 121.508 31.5235 121.04 31.8122C120.986 31.8453 120.934 31.8807 120.859 31.9294C121.103 32.2815 121.333 32.6135 121.563 32.9455C121.535 32.9855 121.506 33.0255 121.478 33.0655C121.33 32.9631 121.113 32.8934 121.047 32.7528C120.711 32.0287 120.157 31.8326 119.352 32.0447C119.352 32.1974 119.352 32.3934 119.352 32.6352ZM121.202 30.7058C120.938 30.0562 120.57 29.9319 119.381 30.0971C119.381 30.6141 119.381 31.1326 119.381 31.6742C119.614 31.6742 119.817 31.6749 120.02 31.6739C120.139 31.6733 120.258 31.6758 120.377 31.6665C120.948 31.6215 121.167 31.3886 121.202 30.7058Z" fill="#2B2C5D"/>
<path d="M134.969 31.9496C134.969 31.1848 134.969 30.4706 134.969 29.7564C135.022 29.7323 135.074 29.7081 135.127 29.684C135.794 30.3755 136.09 31.3318 136.691 32.0969C137.247 31.3245 137.595 30.4163 138.191 29.6798C138.254 29.701 138.317 29.7222 138.38 29.7434C138.38 30.2436 138.38 30.7437 138.38 31.2438C138.38 31.7061 138.393 32.169 138.372 32.6303C138.366 32.764 138.261 32.8932 138.202 33.0245C138.154 32.9 138.066 32.7763 138.064 32.6508C138.05 31.9663 138.057 31.2815 137.981 30.5507C137.569 31.2467 137.158 31.9426 136.681 32.7487C136.203 31.9493 135.792 31.2614 135.381 30.5735C135.352 30.5805 135.324 30.5874 135.295 30.5943C135.295 31.3025 135.302 32.0108 135.288 32.7188C135.286 32.8227 135.186 32.9247 135.131 33.0276C135.077 32.9249 134.987 32.8257 134.976 32.7187C134.953 32.4813 134.969 32.24 134.969 31.9496Z" fill="#2B2C5D"/>
<path d="M97.8334 32.1866C98.0291 32.4617 98.2021 32.7083 98.375 32.9549C98.3393 32.9957 98.3036 33.0366 98.2679 33.0774C98.1135 32.9521 97.8956 32.8581 97.8157 32.696C97.4688 31.9926 96.9199 31.842 96.2162 32.0296C95.9614 32.3091 96.3897 32.8309 95.8293 33.0924C95.8293 31.9365 95.8293 30.8573 95.8293 29.782C96.3891 29.782 96.9347 29.7455 97.4728 29.7931C97.9353 29.8341 98.2667 30.1299 98.3571 30.596C98.4465 31.0573 98.3511 31.4953 97.9138 31.7589C97.7153 31.8785 97.6172 31.9647 97.8334 32.1866ZM96.4858 31.6746C96.7914 31.6631 97.1015 31.6805 97.4014 31.633C97.8099 31.5683 98.028 31.2716 98.0265 30.8792C98.0248 30.4721 97.8254 30.1412 97.3773 30.1009C96.9805 30.0652 96.5779 30.0934 96.1362 30.0934C96.1362 30.5629 96.1235 31.003 96.1476 31.4411C96.1521 31.523 96.3046 31.5966 96.4858 31.6746Z" fill="#2B2C5D"/>
<path d="M113.883 32.1605C113.883 32.3616 113.883 32.5122 113.883 32.714C114.468 32.714 115.011 32.705 115.552 32.7222C115.651 32.7254 115.746 32.8355 115.843 32.8963C115.748 32.941 115.654 33.0228 115.558 33.0244C114.878 33.0356 114.197 33.0304 113.5 33.0304C113.5 31.9226 113.5 30.8649 113.5 29.7299C114.181 29.7299 114.857 29.7252 115.533 29.7367C115.605 29.7379 115.676 29.8336 115.747 29.8854C115.663 29.9404 115.581 30.0404 115.495 30.0429C114.983 30.0578 114.47 30.0503 113.92 30.0503C113.92 30.4402 113.92 30.8055 113.92 31.2068C114.457 31.2068 114.981 31.2068 115.511 31.2068C115.462 31.5174 115.462 31.5174 114.846 31.5175C114.542 31.5175 114.238 31.5175 113.883 31.5175C113.883 31.7441 113.883 31.9271 113.883 32.1605Z" fill="#2B2C5D"/>
<path d="M149.76 32.9932C149.648 32.8672 149.548 32.7657 149.491 32.644C149.162 31.9369 148.596 31.862 147.929 32.0363C147.775 32.8051 147.713 32.9751 147.546 33.0127C147.546 31.9345 147.546 30.8621 147.546 29.7121C148.118 29.7382 148.682 29.7276 149.234 29.8002C149.696 29.8609 149.995 30.1744 150.084 30.6452C150.185 31.1784 149.981 31.5493 149.375 31.9228C149.5 32.1011 149.624 32.2777 149.748 32.4543C149.863 32.6188 149.979 32.7832 150.137 33.0084C149.976 33.0084 149.884 33.0084 149.76 32.9932ZM147.859 30.783C147.859 31.068 147.859 31.3531 147.859 31.7021C148.509 31.5842 149.213 31.9332 149.613 31.269C149.744 31.0521 149.712 30.5659 149.551 30.3775C149.107 29.8588 148.466 30.0827 147.859 30.0551C147.859 30.3136 147.859 30.5004 147.859 30.783Z" fill="#2B2C5D"/>
<path d="M104.609 31.9933C104.094 32.9822 103.194 33.3171 102.238 32.905C101.421 32.5526 101.042 31.6779 101.338 30.8297C101.646 29.9485 102.529 29.518 103.493 29.7793C104.372 30.0176 104.855 30.8343 104.662 31.7555C104.648 31.8223 104.638 31.89 104.609 31.9933ZM101.967 32.3161C102.58 32.83 103.208 32.8906 103.782 32.4909C104.283 32.1422 104.475 31.4844 104.26 30.8964C104.06 30.3492 103.637 30.0809 103.095 30.0316C102.551 29.982 102.084 30.1931 101.797 30.6821C101.477 31.2266 101.54 31.759 101.967 32.3161Z" fill="#2B2C5D"/>
<path d="M92.7143 30.9142C92.5329 31.6707 92.2463 31.9263 91.5181 31.979C91.1975 32.0022 90.8739 31.9829 90.4699 31.9829C90.4699 32.2793 90.4844 32.5276 90.4622 32.7726C90.4542 32.8615 90.3585 32.9424 90.3028 33.027C90.2479 32.9423 90.1463 32.858 90.1453 32.7726C90.1341 31.7839 90.1382 30.795 90.1382 29.7101C90.7511 29.7424 91.3482 29.7142 91.9199 29.8214C92.4378 29.9185 92.6983 30.3336 92.7143 30.9142ZM90.4676 31.1704C90.4744 31.3201 90.4811 31.4697 90.4888 31.6386C90.597 31.6494 90.6787 31.6641 90.7605 31.6646C91.017 31.6661 91.2744 31.6751 91.5299 31.658C92.054 31.6228 92.308 31.3762 92.3232 30.9112C92.3403 30.3837 92.1351 30.1361 91.5748 30.0831C91.2243 30.05 90.8682 30.077 90.4675 30.077C90.4675 30.4283 90.4675 30.7497 90.4676 31.1704Z" fill="#2B2C5D"/>
<path d="M107.831 30.1303C107.926 29.9651 108.015 29.7528 108.116 29.7476C108.556 29.7246 109.004 29.7318 109.442 29.7836C110.072 29.8578 110.42 30.2832 110.409 30.8918C110.399 31.4604 110.034 31.8668 109.436 31.956C109.235 31.9861 109.028 31.9887 108.824 31.9951C108.624 32.0014 108.424 31.9965 108.237 31.9965C108.086 32.8718 108.057 32.9571 107.831 33.0437C107.831 32.0705 107.831 31.1246 107.831 30.1303ZM109.182 31.6657C109.669 31.6469 110.01 31.4377 110.045 30.9203C110.072 30.5298 109.909 30.1889 109.498 30.1172C109.073 30.0432 108.633 30.0592 108.197 30.0357C108.197 30.624 108.197 31.1265 108.197 31.6664C108.514 31.6664 108.802 31.6664 109.182 31.6657Z" fill="#2B2C5D"/>
<path d="M144.136 31.9398C144.297 32.2989 144.447 32.6207 144.596 32.9425C144.553 32.9835 144.51 33.0245 144.467 33.0655C144.345 32.936 144.16 32.8261 144.111 32.673C143.974 32.2452 143.725 32.0767 143.282 32.1514C143.099 32.1822 142.902 32.1804 142.718 32.1517C142.231 32.0758 141.908 32.2186 141.763 32.7266C141.724 32.8632 141.548 32.9606 141.434 33.0759C141.39 33.038 141.347 33.0002 141.303 32.9623C141.766 31.9434 142.22 30.9199 142.699 29.9086C142.838 29.615 143.082 29.6576 143.243 29.996C143.545 30.6279 143.831 31.2667 144.136 31.9398ZM143.312 31.8527C143.434 31.8432 143.557 31.8338 143.715 31.8217C143.45 31.2353 143.208 30.7027 142.944 30.1192C142.678 30.7226 142.437 31.2695 142.181 31.8528C142.574 31.8528 142.898 31.8528 143.312 31.8527Z" fill="#2B2C5D"/>
<path d="M125.416 29.7221C125.842 29.7228 126.218 29.7138 126.593 29.7329C126.681 29.7374 126.764 29.837 126.85 29.8928C126.765 29.9486 126.683 30.0456 126.594 30.0526C126.323 30.0739 126.049 30.0603 125.687 30.0603C125.687 30.8389 125.705 31.5989 125.675 32.3569C125.666 32.5809 125.885 32.9178 125.469 33.0312C125.416 32.8055 125.325 32.5808 125.319 32.3539C125.3 31.6068 125.312 30.859 125.312 30.0609C124.999 30.0609 124.73 30.0774 124.464 30.0526C124.363 30.043 124.27 29.9391 124.173 29.8781C124.263 29.8271 124.351 29.738 124.445 29.7321C124.751 29.7127 125.059 29.7235 125.416 29.7221Z" fill="#244082"/>
<path d="M155.264 29.7483C155.419 30.0183 155.277 30.0637 155.07 30.0618C154.8 30.0594 154.531 30.0612 154.226 30.0612C154.226 31.0594 154.226 32.0125 154.226 32.9755C153.883 33.107 153.825 32.9533 153.827 32.6797C153.835 31.8285 153.83 30.9772 153.83 30.0615C153.552 30.0615 153.316 30.0832 153.087 30.0534C152.948 30.0354 152.819 29.938 152.686 29.8763C152.813 29.8255 152.94 29.7332 153.068 29.731C153.786 29.7187 154.504 29.7282 155.264 29.7483Z" fill="#244082"/>
<path d="M130.515 31.2986C130.651 31.5685 130.741 31.4752 130.838 31.3143C131.101 30.876 131.359 30.4344 131.639 30.0074C131.723 29.8794 131.874 29.7952 131.994 29.6909C132.036 29.7286 132.078 29.7664 132.119 29.8041C131.842 30.2591 131.584 30.7269 131.283 31.1655C130.973 31.6174 130.781 32.0817 130.845 32.6444C130.858 32.7624 130.724 32.8973 130.658 33.0244C130.599 32.906 130.472 32.7744 130.492 32.6713C130.641 31.9063 130.152 31.38 129.82 30.7965C129.629 30.461 129.417 30.1372 129.21 29.8C129.599 29.6887 129.378 29.4486 130.515 31.2986Z" fill="#2B2C5D"/>
</svg>
